<?xml version="1.0" standalone="no"?>
<!DOCTYPE svg PUBLIC "-//W3C//DTD SVG 20010904//EN"
 "http://www.w3.org/TR/2001/REC-SVG-20010904/DTD/svg10.dtd">
<svg version="1.0" xmlns="http://www.w3.org/2000/svg"
 width="288.000000pt" height="288.000000pt" viewBox="0 0 288.000000 288.000000"
 preserveAspectRatio="xMidYMid meet">
<metadata>
Created by potrace 1.14, written by Peter Selinger 2001-2017
</metadata>
<g transform="translate(0.000000,288.000000) scale(0.100000,-0.100000)"
fill="#000000" stroke="none">
<path d="M358 2183 c-3 -5 -4 -343 -4 -753 l1 -745 63 -3 62 -3 0 341 0 342
269 -4 268 -3 69 -35 c77 -39 126 -95 145 -163 6 -23 13 -106 14 -183 3 -145
18 -226 50 -271 14 -20 25 -23 81 -23 37 0 64 4 64 10 0 6 -11 27 -25 48 -35
53 -44 109 -45 257 -1 238 -51 337 -204 399 l-55 23 47 22 c79 39 136 94 173
168 32 65 34 73 34 178 0 98 -3 116 -27 167 -36 78 -98 142 -172 178 -105 50
-177 59 -507 60 -164 0 -299 -3 -301 -7z m617 -107 c185 -30 283 -149 270
-330 -10 -131 -97 -231 -228 -263 -61 -14 -398 -23 -524 -14 -10 1 -13 69 -13
304 0 167 2 306 5 308 7 7 444 3 490 -5z"/>
<path d="M1759 2173 c0 -23 0 -1440 1 -1470 l0 -23 286 0 c159 0 317 5 357 11
189 29 324 149 354 314 21 114 -1 225 -61 310 -42 59 -126 123 -183 138 -49
13 -54 22 -17 31 60 15 134 87 172 166 20 42 27 72 29 131 5 170 -61 285 -203
351 -103 48 -163 56 -461 57 -255 1 -273 0 -274 -16z m545 -97 c172 -21 268
-122 268 -281 0 -117 -42 -194 -132 -240 -70 -35 -146 -45 -360 -45 l-197 0 0
278 c0 152 3 282 7 287 9 11 321 12 414 1z m129 -689 c141 -45 218 -169 203
-327 -6 -74 -25 -118 -72 -170 -80 -89 -137 -102 -440 -104 l-241 -2 0 311 0
311 251 -2 c195 -1 262 -5 299 -17z"/>
</g>
</svg>
